<?xml version="1.0" standalone="no"?>
<!DOCTYPE svg PUBLIC "-//W3C//DTD SVG 20010904//EN"
 "http://www.w3.org/TR/2001/REC-SVG-20010904/DTD/svg10.dtd">
<svg version="1.0" xmlns="http://www.w3.org/2000/svg"
 width="1024.000000pt" height="1024.000000pt" viewBox="0 0 1024.000000 1024.000000"
 preserveAspectRatio="xMidYMid meet">

<g transform="translate(0.000000,1024.000000) scale(0.100000,-0.100000)"
fill="#000000" stroke="none">
<path d="M2996 7889 c-11 -106 -7 -4159 4 -4159 6 0 10 7 10 15 0 23 32 83
105 194 36 54 65 103 65 108 0 5 17 34 39 64 21 30 49 74 63 99 45 80 90 155
103 170 6 8 28 44 47 80 50 93 133 233 190 318 l48 73 0 857 0 857 21 -34 c21
-35 194 -240 404 -480 61 -69 153 -175 205 -235 52 -60 108 -123 123 -140 15
-17 46 -56 69 -86 23 -30 69 -82 102 -116 67 -66 110 -115 187 -214 28 -36 85
-103 127 -149 42 -47 91 -101 108 -120 18 -20 73 -81 124 -136 51 -55 108
-120 128 -145 20 -25 57 -68 82 -96 25 -28 75 -84 111 -125 36 -41 79 -90 95
-109 16 -19 83 -96 150 -170 66 -74 151 -171 189 -215 37 -44 94 -109 126
-145 108 -119 243 -274 307 -352 35 -43 67 -78 71 -78 5 0 30 -28 57 -62 26
-35 84 -102 129 -149 44 -47 105 -114 135 -149 30 -34 79 -88 107 -119 l53
-56 0 2100 c0 1155 -4 2095 -8 2089 -30 -43 -148 -223 -188 -287 -27 -43 -83
-131 -125 -196 -42 -65 -91 -144 -108 -177 -18 -32 -43 -70 -56 -84 -12 -14
-50 -75 -85 -137 -34 -61 -70 -119 -81 -129 -18 -17 -19 -42 -19 -917 l0 -900
-21 19 c-12 10 -40 42 -62 69 -43 55 -137 163 -334 383 -71 78 -143 162 -161
185 -45 56 -122 146 -202 232 -36 39 -87 100 -115 135 -27 35 -80 96 -116 134
-36 39 -117 132 -179 206 -61 74 -134 160 -161 190 -80 90 -289 336 -372 439
-43 53 -103 121 -133 151 -30 31 -54 59 -54 64 0 5 -35 47 -77 93 -43 47 -100
113 -128 147 -27 34 -92 109 -143 168 -51 58 -105 122 -120 141 -30 39 -274
321 -417 481 -50 56 -156 178 -236 271 -80 94 -153 176 -161 183 -13 10 -16 4
-22 -49z"/>
<path d="M5417 7228 c-15 -49 -28 -113 -42 -213 -3 -22 -19 -110 -35 -195 -16
-85 -32 -171 -35 -190 -3 -19 -12 -69 -20 -110 -8 -41 -17 -97 -21 -124 -3
-27 -19 -110 -34 -185 -22 -106 -26 -139 -16 -152 13 -20 294 -316 348 -368
20 -20 51 -54 68 -76 18 -22 73 -83 123 -135 51 -52 113 -119 139 -147 52 -59
85 -72 67 -25 -6 15 -17 50 -24 77 -100 382 -185 697 -230 845 -36 121 -110
404 -130 500 -3 14 -17 66 -30 115 -23 83 -55 217 -85 355 -19 84 -25 88 -43
28z"/>
<path d="M3866 5474 c13 -31 40 -115 58 -187 19 -73 55 -206 81 -297 26 -91
53 -193 60 -227 8 -34 33 -126 56 -205 23 -78 48 -170 56 -203 8 -33 27 -103
43 -155 40 -135 156 -568 180 -675 35 -160 36 -160 44 -60 4 50 9 104 11 120
2 17 9 82 15 145 5 63 15 138 20 165 5 28 9 57 7 65 -3 24 14 192 23 230 5 19
11 64 15 100 3 36 13 108 20 160 8 52 17 115 20 140 16 151 27 227 34 264 5
22 12 79 16 126 7 97 17 84 -115 153 -41 22 -111 63 -155 92 -44 28 -129 80
-190 114 -60 34 -141 82 -180 106 -38 25 -87 54 -107 65 l-37 20 25 -56z"/>
<path d="M10080 80 l0 -80 80 0 80 0 0 80 0 80 -80 0 -80 0 0 -80z"/>
</g>
</svg>
